<svg aria-hidden="true" style="position: absolute; width: 0; height: 0; overflow: hidden;" version="1.1" xmlns="http://www.w3.org/2000/svg" xmlns:xlink="http://www.w3.org/1999/xlink">
<defs>
<symbol id="grey_book" viewBox="0 0 41 32">
<path fill="#a6abb9" style="fill: var(--color1, #a6abb9)" d="M37.647 0.941c-2.089-0.659-4.386-0.941-6.588-0.941-3.671 0-7.624 0.753-10.353 2.824-2.729-2.071-6.682-2.824-10.353-2.824s-7.624 0.753-10.353 2.824v27.576c0 0.471 0.471 0.941 0.941 0.941 0.188 0 0.282-0.094 0.471-0.094 2.541-1.224 6.212-2.071 8.941-2.071 3.671 0 7.624 0.753 10.353 2.824 2.541-1.6 7.153-2.824 10.353-2.824 3.106 0 6.306 0.565 8.941 1.976 0.188 0.094 0.282 0.094 0.471 0.094 0.471 0 0.941-0.471 0.941-0.941v-27.482c-1.129-0.847-2.353-1.412-3.765-1.882zM37.647 26.353c-2.071-0.659-4.329-0.941-6.588-0.941-3.2 0-7.812 1.224-10.353 2.824v-21.647c2.541-1.6 7.153-2.824 10.353-2.824 2.259 0 4.518 0.282 6.588 0.941v21.647z"></path>
</symbol>
<symbol id="white_star" viewBox="0 0 34 32">
<path fill="none" stroke="#ff6b08" style="stroke: var(--color2, #ff6b08)" stroke-linejoin="miter" stroke-linecap="butt" stroke-miterlimit="4" stroke-width="2" d="M17 3.236l3.090 9.511h10l-8.090 5.878 0.225 0.691 2.866 8.82-8.090-5.878-8.090 5.878 3.090-9.511-8.090-5.878h10l3.090-9.511z"></path>
</symbol>
<symbol id="yellow_book" viewBox="0 0 41 32">
<path fill="#ff6b08" style="fill: var(--color2, #ff6b08)" d="M37.647 0.941c-2.089-0.659-4.386-0.941-6.588-0.941-3.671 0-7.624 0.753-10.353 2.824-2.729-2.071-6.682-2.824-10.353-2.824s-7.624 0.753-10.353 2.824v27.576c0 0.471 0.471 0.941 0.941 0.941 0.188 0 0.282-0.094 0.471-0.094 2.541-1.224 6.212-2.071 8.941-2.071 3.671 0 7.624 0.753 10.353 2.824 2.541-1.6 7.153-2.824 10.353-2.824 3.106 0 6.306 0.565 8.941 1.976 0.188 0.094 0.282 0.094 0.471 0.094 0.471 0 0.941-0.471 0.941-0.941v-27.482c-1.129-0.847-2.353-1.412-3.765-1.882zM37.647 26.353c-2.071-0.659-4.329-0.941-6.588-0.941-3.2 0-7.812 1.224-10.353 2.824v-21.647c2.541-1.6 7.153-2.824 10.353-2.824 2.259 0 4.518 0.282 6.588 0.941v21.647z"></path>
</symbol>
<symbol id="yellow_star" viewBox="0 0 34 32">
<path fill="#ff6b08" style="fill: var(--color2, #ff6b08)" d="M17 0l3.817 11.747h12.351l-9.992 7.26 3.817 11.747-9.992-7.26-9.992 7.26 3.817-11.747-9.992-7.26h12.351l3.817-11.747z"></path>
</symbol>

<symbol id="plus" viewBox="0 0 16 16" >
<path fill="#fff" d="M15.1999 7.19998H8.80002V0.799949C8.80002 0.358446 8.44158 0 7.99993 0C7.55842 0 7.19998 0.358446 7.19998 0.799949V7.19998H0.799949C0.358446 7.19998 0 7.55842 0 7.99993C0 8.44158 0.358446 8.80002 0.799949 8.80002H7.19998V15.1999C7.19998 15.6416 7.55842 16 7.99993 16C8.44158 16 8.80002 15.6416 8.80002 15.1999V8.80002H15.1999C15.6416 8.80002 16 8.44158 16 7.99993C16 7.55842 15.6416 7.19998 15.1999 7.19998Z" />
</symbol>
<symbol id="icon-good" viewBox="0 0 35 32">
<path  style="fill: var(--color2, #a6abb9)" d="M12.696 31.478h14.087c0.003 0 0.007 0 0.011 0 1.284 0 2.387-0.779 2.861-1.889l0.008-0.020 4.727-11.035c0.139-0.338 0.219-0.731 0.219-1.142v-3.13c0-1.722-1.409-3.13-3.13-3.13h-9.877l1.487-7.153 0.047-0.501c0-0.642-0.266-1.237-0.689-1.66l-1.661-1.643-10.313 10.315c-0.561 0.563-0.908 1.339-0.908 2.196 0 0.004 0 0.007 0 0.011v-0.001 15.652c0 1.722 1.409 3.13 3.13 3.13zM12.696 12.696l6.793-6.793-2.097 8.358h14.087v3.13l-4.696 10.957h-14.087v-15.652zM0.174 12.696h6.261v18.783h-6.261v-18.783z"></path>
</symbol>
</defs>
</svg>
