<svg width="16" height="16" viewBox="0 0 16 16" fill="none" xmlns="http://www.w3.org/2000/svg">
<path id="plus" d="M15.1999 7.19998H8.80002V0.799949C8.80002 0.358446 8.44158 0 7.99993 0C7.55842 0 7.19998 0.358446 7.19998 0.799949V7.19998H0.799949C0.358446 7.19998 0 7.55842 0 7.99993C0 8.44158 0.358446 8.80002 0.799949 8.80002H7.19998V15.1999C7.19998 15.6416 7.55842 16 7.99993 16C8.44158 16 8.80002 15.6416 8.80002 15.1999V8.80002H15.1999C15.6416 8.80002 16 8.44158 16 7.99993C16 7.55842 15.6416 7.19998 15.1999 7.19998Z" fill="white"/>
</svg>
<svg width="22px" height="17px" viewBox="0 0 22 17" fill="none" xmlns="http://www.w3.org/2000/svg">
<path id="icon" d="M20 0.5C18.89 0.15 17.67 0 16.5 0C14.55 0 12.45 0.4 11 1.5C9.55 0.4 7.45 0 5.5 0C3.55 0 1.45 0.4 0 1.5V16.15C0 16.4 0.25 16.65 0.5 16.65C0.6 16.65 0.65 16.6 0.75 16.6C2.1 15.95 4.05 15.5 5.5 15.5C7.45 15.5 9.55 15.9 11 17C12.35 16.15 14.8 15.5 16.5 15.5C18.15 15.5 19.85 15.8 21.25 16.55C21.35 16.6 21.4 16.6 21.5 16.6C21.75 16.6 22 16.35 22 16.1V1.5C21.4 1.05 20.75 0.75 20 0.5ZM20 14C18.9 13.65 17.7 13.5 16.5 13.5C14.8 13.5 12.35 14.15 11 15V3.5C12.35 2.65 14.8 2 16.5 2C17.7 2 18.9 2.15 20 2.5V14Z" fill="#A6ABB9"/>
</svg>
<svg width="17" height="16" viewBox="0 0 17 16" fill="white" xmlns="http://www.w3.org/2000/svg">
<path id="white_star" d="M8.5 1.61804L9.93284 6.02786L10.0451 6.37336H10.4084L15.0451 6.37336L11.2939 9.09878L11 9.31231L11.1123 9.6578L12.5451 14.0676L8.79389 11.3422L8.5 11.1287L8.20611 11.3422L4.45488 14.0676L5.88772 9.6578L5.99998 9.31231L5.70609 9.09878L1.95486 6.37336L6.59163 6.37336H6.9549L7.06716 6.02786L8.5 1.61804Z" stroke="#FF6B08" />
</svg>
<svg width="22" height="17" viewBox="0 0 22 17" fill="none" xmlns="http://www.w3.org/2000/svg">
<path  id="yellow_book" d="M20 0.5C18.89 0.15 17.67 0 16.5 0C14.55 0 12.45 0.4 11 1.5C9.55 0.4 7.45 0 5.5 0C3.55 0 1.45 0.4 0 1.5V16.15C0 16.4 0.25 16.65 0.5 16.65C0.6 16.65 0.65 16.6 0.75 16.6C2.1 15.95 4.05 15.5 5.5 15.5C7.45 15.5 9.55 15.9 11 17C12.35 16.15 14.8 15.5 16.5 15.5C18.15 15.5 19.85 15.8 21.25 16.55C21.35 16.6 21.4 16.6 21.5 16.6C21.75 16.6 22 16.35 22 16.1V1.5C21.4 1.05 20.75 0.75 20 0.5ZM20 14C18.9 13.65 17.7 13.5 16.5 13.5C14.8 13.5 12.35 14.15 11 15V3.5C12.35 2.65 14.8 2 16.5 2C17.7 2 18.9 2.15 20 2.5V14Z" fill="#FF6B08"/>
</svg>
<svg width="17" height="16" viewBox="0 0 17 16" fill="none" xmlns="http://www.w3.org/2000/svg">
<path id="yellow_star" d="M8.5 0L10.4084 5.87336L16.584 5.87336L11.5878 9.50329L13.4962 15.3766L8.5 11.7467L3.50383 15.3766L5.41219 9.50329L0.416019 5.87336L6.59163 5.87336L8.5 0Z" fill="#FF6B08"/>
</svg>
